<?xml version="1.0" encoding="utf-8" standalone="no"?>
<!DOCTYPE svg PUBLIC "-//W3C//DTD SVG 1.1//EN"
  "http://www.w3.org/Graphics/SVG/1.1/DTD/svg11.dtd">
<svg xmlns:xlink="http://www.w3.org/1999/xlink" width="568.8pt" height="568.8pt" viewBox="0 0 568.8 568.8" xmlns="http://www.w3.org/2000/svg" version="1.1">
 <metadata>
  <rdf:RDF xmlns:dc="http://purl.org/dc/elements/1.1/" xmlns:cc="http://creativecommons.org/ns#" xmlns:rdf="http://www.w3.org/1999/02/22-rdf-syntax-ns#">
   <cc:Work>
    <dc:type rdf:resource="http://purl.org/dc/dcmitype/StillImage"/>
    <dc:date>2026-03-15T16:45:40.593801</dc:date>
    <dc:format>image/svg+xml</dc:format>
    <dc:creator>
     <cc:Agent>
      <dc:title>Matplotlib v3.10.8, https://matplotlib.org/</dc:title>
     </cc:Agent>
    </dc:creator>
   </cc:Work>
  </rdf:RDF>
 </metadata>
 <defs>
  <style type="text/css">*{stroke-linejoin: round; stroke-linecap: butt}</style>
 </defs>
 <g id="figure_1">
  <g id="patch_1">
   <path d="M 0 568.8 
L 568.8 568.8 
L 568.8 0 
L 0 0 
z
" style="fill: #ffffff"/>
  </g>
  <g id="axes_1">
   <g id="patch_2">
    <path d="M 84.032508 140.884788 
C 58.778251 170.98164 41.003029 206.633219 32.165006 244.914904 
C 23.326982 283.196589 23.674622 323.03216 33.179407 361.153769 
C 42.684192 399.275379 61.078912 434.611308 86.854586 464.262829 
C 112.63026 493.91435 145.062251 517.047864 181.490053 531.765652 
C 217.917856 546.483439 257.317368 552.371736 296.456513 548.947504 
C 335.595658 545.523273 373.374111 532.882779 406.692776 512.062966 
C 440.011442 491.243154 467.933625 462.829333 488.168776 429.152386 
C 508.403927 395.47544 520.383171 357.482134 523.123808 318.289189 
L 274.757066 300.921694 
z
" style="fill: #323e44; opacity: 0.5; stroke: #323e44; stroke-linejoin: miter"/>
   </g>
   <g id="patch_3">
    <path d="M 532.45051 295.204767 
C 535.93152 245.424002 524.366887 195.728037 499.265004 152.598726 
C 474.163121 109.469422 436.664974 74.867145 391.66142 53.305082 
L 284.083761 277.837296 
z
" style="fill: #092436; opacity: 0.5; stroke: #092436; stroke-linejoin: miter"/>
   </g>
   <g id="patch_4">
    <path d="M 391.66142 53.305082 
C 370.464584 43.149281 347.935943 36.046045 324.74738 32.207214 
C 301.558813 28.368383 277.943093 27.832482 254.604261 30.61548 
L 284.083761 277.837296 
z
" style="fill: #354329; opacity: 0.5; stroke: #354329; stroke-linejoin: miter"/>
   </g>
   <g id="patch_5">
    <path d="M 254.604261 30.61548 
C 241.653123 32.159815 228.843395 34.719441 216.293292 38.270763 
C 203.743189 41.822084 191.491465 46.354134 179.651425 51.825004 
L 284.083761 277.837296 
z
" style="fill: #0f300d; opacity: 0.5; stroke: #0f300d; stroke-linejoin: miter"/>
   </g>
   <g id="patch_6">
    <path d="M 179.651425 51.825004 
C 170.181126 56.200893 160.995212 61.167694 152.148036 66.696025 
C 143.300867 72.224355 134.809886 78.303293 126.725358 84.896881 
L 284.083761 277.837296 
z
" style="fill: #4b2e2e; opacity: 0.5; stroke: #4b2e2e; stroke-linejoin: miter"/>
   </g>
   <g id="patch_7">
    <path d="M 126.725358 84.896881 
C 120.662863 89.841333 114.836694 95.068858 109.266426 100.561899 
C 103.696157 106.05494 98.387963 111.807369 93.359338 117.800235 
L 284.083761 277.837296 
z
" style="fill: #440808; opacity: 0.5; stroke: #440808; stroke-linejoin: miter"/>
   </g>
   <g id="patch_8">
    <path d="M 89.011973 135.905323 
C 63.757715 166.002176 45.982494 201.653754 37.14447 239.935439 
C 28.306447 278.217124 28.654087 318.052695 38.158872 356.174305 
C 47.663656 394.295915 66.058376 429.631843 91.83405 459.283364 
C 117.609724 488.934885 150.041716 512.0684 186.469518 526.786187 
C 222.897321 541.503975 262.296832 547.392271 301.435978 543.96804 
C 340.575123 540.543808 378.353576 527.903315 411.672241 507.083502 
C 444.990906 486.263689 472.91309 457.849868 493.148241 424.172922 
C 513.383392 390.495975 525.362635 352.502669 528.103273 313.309724 
L 279.736531 295.94223 
z
" style="fill: #a6cee3"/>
   </g>
   <g id="patch_9">
    <path d="M 537.429975 290.225303 
C 540.910984 240.444537 529.346351 190.748573 504.244468 147.619261 
C 479.142586 104.489957 441.644438 69.88768 396.640884 48.325618 
L 289.063226 272.857831 
z
" style="fill: #1f78b4"/>
   </g>
   <g id="patch_10">
    <path d="M 396.640884 48.325618 
C 375.444048 38.169816 352.915407 31.06658 329.726844 27.227749 
C 306.538278 23.388919 282.922558 22.853018 259.583725 25.636015 
L 289.063226 272.857831 
z
" style="fill: #b2df8a"/>
   </g>
   <g id="patch_11">
    <path d="M 259.583725 25.636015 
C 246.632587 27.18035 233.822859 29.739977 221.272756 33.291298 
C 208.722653 36.842619 196.47093 41.374669 184.630889 46.845539 
L 289.063226 272.857831 
z
" style="fill: #33a02c"/>
   </g>
   <g id="patch_12">
    <path d="M 184.630889 46.845539 
C 175.16059 51.221428 165.974677 56.18823 157.1275 61.71656 
C 148.280331 67.244891 139.789351 73.323829 131.704822 79.917416 
L 289.063226 272.857831 
z
" style="fill: #fb9a99"/>
   </g>
   <g id="patch_13">
    <path d="M 131.704822 79.917416 
C 125.642327 84.861868 119.816159 90.089393 114.24589 95.582434 
C 108.675622 101.075475 103.367427 106.827904 98.338803 112.82077 
L 289.063226 272.857831 
z
" style="fill: #e31a1c"/>
   </g>
   <g id="matplotlib.axis_1"/>
   <g id="matplotlib.axis_2"/>
  </g>
 </g>
</svg>
